<svg width="12" height="9" viewBox="0 0 12 9" fill="none" xmlns="http://www.w3.org/2000/svg">
<g clip-path="url(#clip0_168_2)">
<path d="M0.5 2.5L0.5 3.5H1.5V2.5H0.5Z" fill="black"/>
<path d="M0.5 0.5L0.5 1.5H1.5V0.5L0.5 0.5Z" fill="black"/>
<path d="M10.5 2.5V3.5H11.5V2.5H10.5Z" fill="black"/>
<path d="M10.5 0.5V1.5H11.5V0.5L10.5 0.5Z" fill="black"/>
<path d="M9.5 3.5V4.5H10.5V3.5H9.5Z" fill="black"/>
<path d="M9.5 1.5V2.5H10.5V1.5H9.5Z" fill="black"/>
<path d="M8.5 4.5V5.5H9.5V4.5H8.5Z" fill="black"/>
<path d="M8.5 2.5V3.5H9.5V2.5H8.5Z" fill="black"/>
<path d="M7.5 5.5V6.5H8.5V5.5H7.5Z" fill="black"/>
<path d="M7.5 3.5V4.5H8.5V3.5H7.5Z" fill="black"/>
<path d="M6.5 6.5V7.5H7.5V6.5H6.5Z" fill="black"/>
<path d="M6.5 4.5V5.5H7.5V4.5H6.5Z" fill="black"/>
<path d="M5.5 7.5V8.5H6.5V7.5H5.5Z" fill="black"/>
<path d="M5.5 5.5V6.5H6.5V5.5H5.5Z" fill="black"/>
<path d="M4.5 6.5V7.5H5.5V6.5H4.5Z" fill="black"/>
<path d="M4.5 4.5V5.5H5.5V4.5H4.5Z" fill="black"/>
<path d="M3.5 5.5V6.5H4.5V5.5H3.5Z" fill="black"/>
<path d="M3.5 3.5V4.5H4.5V3.5H3.5Z" fill="black"/>
<path d="M2.5 4.5V5.5H3.5V4.5H2.5Z" fill="black"/>
<path d="M2.5 2.5V3.5H3.5V2.5H2.5Z" fill="black"/>
<path d="M1.5 3.5V4.5H2.5V3.5H1.5Z" fill="black"/>
<path d="M1.5 1.5V2.5H2.5V1.5H1.5Z" fill="black"/>
</g>
<defs>
<clipPath id="clip0_168_2">
<rect width="8" height="11" fill="white" transform="translate(0.5 8.5) rotate(-90)"/>
</clipPath>
</defs>
</svg>
