<svg width="12" height="9" viewBox="0 0 12 9" fill="none" xmlns="http://www.w3.org/2000/svg">
<g clip-path="url(#clip0_168_2)">
<path d="M11.5 6.5V5.5H10.5V6.5H11.5Z" fill="black"/>
<path d="M11.5 8.5V7.5H10.5V8.5H11.5Z" fill="black"/>
<path d="M1.5 6.5V5.5H0.5L0.5 6.5H1.5Z" fill="black"/>
<path d="M1.5 8.5V7.5H0.5L0.5 8.5H1.5Z" fill="black"/>
<path d="M2.5 5.5V4.5H1.5V5.5H2.5Z" fill="black"/>
<path d="M2.5 7.5V6.5H1.5V7.5H2.5Z" fill="black"/>
<path d="M3.5 4.5V3.5H2.5V4.5H3.5Z" fill="black"/>
<path d="M3.5 6.5V5.5H2.5V6.5H3.5Z" fill="black"/>
<path d="M4.5 3.5V2.5H3.5V3.5H4.5Z" fill="black"/>
<path d="M4.5 5.5V4.5H3.5V5.5H4.5Z" fill="black"/>
<path d="M5.5 2.5V1.5H4.5V2.5H5.5Z" fill="black"/>
<path d="M5.5 4.5V3.5H4.5V4.5H5.5Z" fill="black"/>
<path d="M6.5 1.5V0.5L5.5 0.5V1.5H6.5Z" fill="black"/>
<path d="M6.5 3.5V2.5H5.5V3.5H6.5Z" fill="black"/>
<path d="M7.5 2.5V1.5H6.5V2.5H7.5Z" fill="black"/>
<path d="M7.5 4.5V3.5H6.5V4.5H7.5Z" fill="black"/>
<path d="M8.5 3.5V2.5H7.5V3.5H8.5Z" fill="black"/>
<path d="M8.5 5.5V4.5H7.5V5.5H8.5Z" fill="black"/>
<path d="M9.5 4.5V3.5H8.5V4.5H9.5Z" fill="black"/>
<path d="M9.5 6.5V5.5H8.5V6.5H9.5Z" fill="black"/>
<path d="M10.5 5.5V4.5H9.5V5.5H10.5Z" fill="black"/>
<path d="M10.5 7.5V6.5H9.5V7.5H10.5Z" fill="black"/>
</g>
<defs>
<clipPath id="clip0_168_2">
<rect width="8" height="11" fill="white" transform="translate(11.5 0.5) rotate(90)"/>
</clipPath>
</defs>
</svg>
