<?xml version="1.0" encoding="utf-8"?>
<!-- Generator: Adobe Illustrator 25.4.1, SVG Export Plug-In . SVG Version: 6.00 Build 0)  -->
<svg version="1.1" id="Layer_1" xmlns="http://www.w3.org/2000/svg" xmlns:xlink="http://www.w3.org/1999/xlink" x="0px" y="0px"
	 viewBox="0 0 878 589" style="enable-background:new 0 0 878 589;" xml:space="preserve">
<g>
	<path d="M0,439.2c10.8,0,21.6,0,32.7,0c0-3.5,0-6.8,0-10.6c46.6,0,92.8,0,139.4,0c0-3.8,0-7.1,0-10.8c39.3,0,78.3,0,117.6,0
		c0-3.7,0-7,0-10.7c28.7,0,57.1,0,85.7,0c0-3.7,0-6.9,0-10.6c21.5,0,42.7,0,64.3,0c0-3.7,0-7,0-10.6c17.9,0,35.5,0,53.6,0
		c0-3.8,0-7.1,0-10.8c14.4,0,28.5,0,42.9,0c0-3.7,0-7,0-10.8c10.8,0,21.2,0,32.1,0c0-3.7,0-7,0-10.7c14.4,0,28.5,0,42.9,0
		c0-3.7,0-7,0-10.8c10.8,0,21.3,0,32.1,0c0-3.6,0-6.9,0-10.5c7.3,0,14.2,0,21.4,0c0-3.7,0-7,0-10.7c10.8,0,21.3,0,32.2,0
		c0-3.8,0-7.1,0-10.8c7.2,0,14.1,0,21.3,0c0-3.7,0-7,0-10.7c3.7,0,7,0,10.7,0c0-3.7,0-7,0-10.7c3.7,0,7,0,10.6,0
		c0-14.3,0-28.3,0-42.6c-3.4,0-6.7,0-10.4,0c0-3.7,0-7,0-10.7c-3.7,0-7,0-10.8,0c0-3.7,0-7,0-10.7c-7.2,0-14.1,0-21.3,0
		c0-3.7,0-7,0-10.7c-7.3,0-14.3,0-21.5,0c0-3.7,0-6.9,0-10.6c-7.2,0-14.2,0-21.5,0c0-3.8,0-7.1,0-10.8c-10.8,0-21.3,0-32.1,0
		c0-3.7,0-7.1,0-10.7c-18,0-35.5,0-53.5,0c0-3.6,0-6.9,0-10.6c-21.6,0-42.7,0-64.2,0c0-3.7,0-7,0-10.7c-21.5,0-42.6,0-64.3,0
		c0-3.8,0-7.2,0-10.9c-78.7,0-157,0-235.5,0c0-3.7,0-7.2,0-10.9c7.1,0,13.9,0,21.1,0c0-3.6,0-6.8,0-10.3c10.9,0,21.6,0,32.5,0
		c0,3.4,0,6.7,0,10.1c7.1,0,14,0,21.2,0c0-3.4,0-6.7,0-10.1c10.9,0,21.4,0,32.3,0c0,3.3,0,6.6,0,10.1c7.2,0,14.1,0,21.4,0
		c0-3.4,0-6.7,0-10.1c14.4,0,28.4,0,42.9,0c0,3.4,0,6.7,0,10.3c28.7,0,56.9,0,85.6,0c0,3.6,0,7,0,10.7c28.7,0,57,0,85.7,0
		c0,3.7,0,7.1,0,10.8c21.6,0,42.8,0,64.4,0c0,3.8,0,7.1,0,10.6c3.6,0,6.9,0,10.5,0c0-3.4,0-6.8,0-10.4c3.7,0,7.1,0,10.8,0
		c0,3.3,0,6.7,0,10.4c10.8,0,21.3,0,32.1,0c0,3.7,0,7,0,10.8c10.9,0,21.4,0,32.3,0c0,3.7,0,6.9,0,10.6c10.8,0,21.2,0,32,0
		c0,3.7,0,7.1,0,10.8c7.3,0,14.3,0,21.5,0c0,3.7,0,6.9,0,10.6c7.2,0,14.1,0,21.4,0c0,3.8,0,7.1,0,10.7c3.7,0,6.9,0,10.6,0
		c0,3.6,0,7,0,10.7c3.7,0,7.1,0,10.7,0c0,7.3,0,14.1,0,21.4c3.6,0,7,0,10.6,0c0,7.3,0,14.3,0,21.7c-3.3,0-6.6,0-10.3,0
		c0,7.3,0,14.1,0,21.4c-3.7,0-7,0-10.8,0c0,3.7,0,7.1,0,10.7c-3.7,0-6.9,0-10.7,0c0,3.7,0,7.1,0,10.8c-7.4,0-14.2,0-21.4,0
		c0,3.6,0,7,0,10.7c-7.3,0-14.2,0-21.5,0c0,3.6,0,6.9,0,10.6c-7.2,0-14.1,0-21.3,0c0,3.7,0,6.9,0,10.4c10.5,0,20.9,0,31.6,0
		c0-3.3,0-6.7,0-10.5c7.3,0,14.2,0,21.5,0c0-3.7,0-6.9,0-10.5c7.2,0,14,0,21.3,0c0-3.7,0-7,0-10.7c7.3,0,14.3,0,21.6,0
		c0-3.7,0-7.1,0-10.7c7.2,0,14.1,0,21.3,0c0-3.6,0-7,0-10.7c3.7,0,7,0,10.8,0c0-7.3,0-14.2,0-21.5c3.7,0,6.9,0,10.5,0
		c0-14.3,0-28.4,0-42.7c-3.4,0-6.6,0-10.3,0c0-3.6,0-7,0-10.7c-3.7,0-7.1,0-10.8,0c0-3.7,0-7.1,0-10.8c-3.7,0-7.1,0-10.7,0
		c0-3.6,0-6.9,0-10.6c-7.2,0-14.2,0-21.4,0c0-3.7,0-7,0-10.7c-7.2,0-14.1,0-21.5,0c0-3.8,0-7.1,0-10.7c-14.4,0-28.3,0-42.7,0
		c0-3.6,0-6.9,0-10.7c-10.8,0-21.3,0-32.2,0c0-3.8,0-7.2,0-10.9c-18.1,0-35.6,0-53.6,0c0-3.6,0-7,0-10.7c-14.4,0-28.5,0-42.7,0
		c0-3.8,0-7.2,0-10.8c21.3,0,42.5,0,64,0c0,3.4,0,6.7,0,10.5c18,0,35.6,0,53.6,0c0,3.7,0,7.1,0,10.7c10.8,0,21.3,0,32.1,0
		c0,3.6,0,7,0,10.7c14.4,0,28.4,0,42.9,0c0,3.7,0,7,0,10.7c10.9,0,21.3,0,32.2,0c0,3.7,0,7,0,10.8c3.7,0,7.1,0,10.7,0
		c0,3.7,0,6.9,0,10.6c7.2,0,14.1,0,21.5,0c0,3.8,0,7.1,0,10.8c3.7,0,6.9,0,10.5,0c0,3.7,0,7,0,10.8c3.6,0,6.9,0,10.1,0
		c0,25,0,50,0,75c-3.3,0-6.5,0-10.1,0c0,3.9,0,7.2,0,10.9c-7.2,0-14.1,0-21.3,0c0,7.3,0,14.2,0,21.6c-10.9,0-21.5,0-32.3,0
		c0,3.7,0,6.9,0,10.5c-7.2,0-14,0-21.3,0c0,3.7,0,7,0,10.7c-7.3,0-14.1,0-21.4,0c0,3.7,0,7,0,10.8c-7.3,0-14.3,0-21.5,0
		c0,3.8,0,7.1,0,10.5c-3.7,0-7.1,0-10.8,0c0-3.5,0-6.9,0-10.3c-3.7,0-7,0-10.7,0c0,3.6,0,6.9,0,10.6c-7.2,0-14.1,0-21.3,0
		c0,3.7,0,7,0,10.7c-14.4,0-28.5,0-42.9,0c0,3.7,0,7,0,10.7c-18,0-35.6,0-53.5,0c0,3.7,0,6.9,0,10.6c-14.3,0-28.3,0-42.8,0
		c0,3.7,0,7.1,0,10.8c-14.5,0-28.5,0-42.8,0c0,3.7,0,6.9,0,10.6c-17.9,0-35.6,0-53.6,0c0,3.8,0,7.1,0,10.8c-21.5,0-42.7,0-64.2,0
		c0,3.6,0,7,0,10.4c-14.5,0-28.6,0-42.8,0c0-3.6,0-6.9,0-10.7c7.1,0,14.1,0,21.2,0c0-3.9,0-7.4,0-10.8c0.6,0,1.2,0.1,1.8,0.1
		c23.6,0,47.1,0,70.7,0c0.8,0,1.5-0.2,2.3-0.3c0-3.4,0-6.7,0-9.9c-24.9,0-49.6,0-74.7,0c0,3.6,0,6.8,0,10.1
		c-1.3,0.1-2.6,0.3-3.9,0.3c-29.5,0-59,0-88.5,0c-1.2,0-2.5,0.1-3.7,0.2c0,3.6,0,6.9,0,10.5c17.9,0,35.5,0,53.2,0
		c0,3.7,0,7.1,0,10.8c-14.3,0-28.3,0-42.7,0c0,3.7,0,7,0,10.7c-39.4,0-78.4,0-117.5,0c0,3.6,0,6.9,0,10.6c25,0,49.8,0,74.6,0
		c0,3.8,0,7.2,0,10.8c-21.4,0-42.5,0-63.8,0c0,3.6,0,6.8,0,10.4c10.6,0,21.1,0,31.6,0c0,3.8,0,7.2,0,10.9c-3.5,0-6.8,0-10.1,0
		c0,3.6,0,6.9,0,10.6c3.6,0,6.8,0,10.4,0c0,3.7,0,7,0,10.7c7.4,0,14.3,0,21.3,0c0,3.5,0,6.9,0,10.5c3.7,0,7,0,10.3,0
		c0-3.6,0-6.9,0-10.4c-3.7,0-7,0-10.4,0c0-3.5,0-7.1,0-10.9c7.3,0,14.2,0,21.5,0c0-7.2,0-14.1,0-21.1c10.9,0,21.3,0,32.2,0
		c0,7.1,0,14.1,0,21c18,0,35.5,0,53.4,0c0-3.6,0-6.9,0-10.6c3.7,0,7.1,0,10.4,0c0-3.5,0-6.7,0-10.3c-3.5,0-6.8,0-10.4,0
		c0-3.8,0-7.1,0-10.6c21.5,0,42.8,0,64.5,0c0,3.6,0,6.9,0,10.5c10.8,0,21.2,0,31.9,0c0,3.6,0,7,0,10.3c10.8,0,21.3,0,31.7,0
		c0-3.5,0-6.7,0-10.2c-7.1,0-14,0-21,0c0-3.8,0-7.2,0-10.9c7.1,0,14,0,21.2,0c0-3.7,0-7,0-10.7c10.9,0,21.3,0,31.9,0
		c0-3.7,0-7.1,0-10.5c1.1,0,2.2-0.1,3.3-0.1c15.5,0,31,0,46.4,0c1.2,0,2.3,0,3.6,0c0-3.7,0-7,0-10.4c-17.8,0-35.3,0-53.3,0
		c0,3.7,0,7.1,0,10.6c-17.8,0-35.5,0-53.3,0c0-3.9,0-7.2,0-11c14.2,0,28.2,0,42.7,0c0-3.7,0-7.1,0-10.7c14.4,0,28.5,0,42.9,0
		c0-3.7,0-7,0-10.7c14.4,0,28.5,0,42.9,0c0-3.7,0-7,0-10.7c17.9,0,35.5,0,53.5,0c0-3.7,0-7,0-10.7c10.9,0,21.3,0,32.2,0
		c0-3.7,0-7,0-10.8c14.4,0,28.5,0,42.8,0c0-3.7,0-6.9,0-10.5c14.3,0,28.4,0,42.8,0c0-3.7,0-7,0-10.8c10.9,0,21.4,0,32.3,0
		c0-3.8,0-7.1,0-10.8c10.8,0,21.3,0,32.1,0c0-3.7,0-7,0-10.7c10.8,0,21.3,0,32.1,0c0-3.7,0-7,0-10.8c7.2,0,14,0,20.7,0
		c0,7.2,0,14.4,0,21.6c-10.4,0-20.7,0-31.4,0c0,4,0,7.3,0,11.1c-7.3,0-14.3,0-21.5,0c0,3.7,0,7.1,0,10.7c-14.3,0-28.3,0-42.7,0
		c0,3.6,0,7,0,10.7c-10.9,0-21.4,0-32.2,0c0,3.7,0,7,0,10.6c-14.3,0-28.3,0-42.8,0c0,3.7,0,7,0,10.8c-14.5,0-28.5,0-42.9,0
		c0,3.7,0,7.1,0,10.7c-18,0-35.5,0-53.3,0c0,3.7,0,7.1,0,10.4c-1.1,0.1-2.2,0.2-3.3,0.2c-12,0-24,0-36,0c-1.1,0-2.1,0-3.4,0
		c0,3.7,0,7,0,10.3c14.2,0,28.1,0,42.6,0c0-3.7,0-7.1,0-10.6c21.2,0,42.5,0,64.1,0c0-3.6,0-7,0-10.7c18,0,35.6,0,53.6,0
		c0-3.7,0-7.1,0-10.8c18,0,35.6,0,53.5,0c0-3.7,0-6.9,0-10.6c10.8,0,21.2,0,32,0c0-3.7,0-7,0-10.7c14.4,0,28.5,0,42.9,0
		c0-3.7,0-7,0-10.5c7.2,0,14,0,20.8,0c0,7.2,0,14.4,0,21.6c-3.2,0-6.5,0-9.9,0c0,3.5,0,6.7,0,10.2c3.4,0,6.6,0,9.9,0
		c0,3.6,0,7.2,0,10.8c-6.8,0-13.5,0-20.7,0c0,4,0,7.4,0,11.1c-3.7,0-7.1,0-10.7,0c0,3.7,0,6.9,0,10.3c-3.7,0-7.2,0-11,0
		c0-3.6,0-6.9,0-10.2c-7.3,0-14.1,0-21.3,0c0,3.6,0,6.9,0,10.5c-10.7,0-21.1,0-31.9,0c0,7.2,0,14.1,0,21.2c-7.4,0-14.3,0-21.6,0
		c0-3.5,0-6.9,0-10.4c-7.2,0-14.1,0-21.3,0c0,3.5,0,6.9,0,10.6c-14.4,0-28.4,0-42.8,0c0,3.7,0,7.1,0,10.7c-21.5,0-42.7,0-64.2,0
		c0,3.7,0,7,0,10.8c-18,0-35.7,0-53.6,0c0,3.7,0,6.9,0,10.5c-21.5,0-42.7,0-64.2,0c0,3.7,0,7,0,10.4c-39.5,0-78.6,0-118.1,0
		c0-3.6,0-6.9,0-10.2c-3.6,0-6.9,0-10.5,0c0,7.2,0,14.1,0,21.3c-35.7,0-71.1,0-106.6,0c0,3.6,0,6.9,0,10.3c60.6,0,120.9,0,181.6,0
		c0-3.5,0-6.9,0-10.6c21.6,0,42.8,0,64.4,0c0-3.8,0-7.1,0-10.7c28.6,0,56.9,0,85.6,0c0-3.7,0-7.1,0-10.8c21.6,0,42.8,0,64.2,0
		c0-3.6,0-6.9,0-10.6c21.5,0,42.7,0,64.2,0c0-3.7,0-7,0-10.7c17.9,0,35.5,0,53.6,0c0-3.8,0-7.1,0-10.7c18,0,35.5,0,53.5,0
		c0-3.7,0-7,0-10.5c3.8,0,7.1,0,10.6,0c0,7.2,0,14.2,0,21.6c-10.7,0-21.2,0-31.9,0c0,3.6,0,6.9,0,10.6c-17.9,0-35.5,0-53.5,0
		c0,3.7,0,6.9,0,10.6c-21.6,0-42.8,0-64.1,0c0,3.7,0,6.9,0,10.6c3.6,0,6.9,0,10.3,0c0,3.8,0,7.1,0,10.6c-3.6,0-7,0-10.8,0
		c0-3.6,0-6.9,0-10.2c-21.4,0-42.5,0-63.6,0c0,3.5,0,6.7,0,10.4c7.1,0,14,0,20.9,0c0,3.8,0,7.2,0,10.6c-7.2,0-14.1,0-21.4,0
		c0-3.6,0-6.9,0-10.3c-7.2,0-14.1,0-21.3,0c0,3.6,0,6.9,0,10.6c-10.8,0-21.3,0-32.1,0c0,3.6,0,7,0,10.7c-7.2,0-14.1,0-21.1,0
		c0,3.6,0,6.8,0,10.5c3.5,0,6.9,0,10.5,0c0,3.7,0,7,0,10.4c14.3,0,28.3,0,42.4,0c0-3.5,0-6.7,0-10.4c-7.2,0-14.1,0-21,0
		c0-3.8,0-7.1,0-10.6c7.2,0,14.1,0,21.5,0c0,3.5,0,6.9,0,10.2c28.6,0,56.9,0,85.4,0c0-3.5,0-6.8,0-10.4c28.7,0,57,0,85.6,0
		c0-3.7,0-6.9,0-10.6c21.6,0,42.8,0,64.4,0c0-3.8,0-7.1,0-10.6c7.2,0,14,0,20.7,0c0,21.4,0,42.8,0,64.2c-53.4,0-106.8,0-160.2,0
		c0-3.4,0-6.9,0-10.4c-14.4,0-28.4,0-42.6,0c0,3.6,0,7,0,10.4c-64.2,0-128.4,0-192.6,0c-0.1-3.5-0.3-6.9-0.4-10.7c-3.6,0-7,0-10.4,0
		c0-3.7,0-7.1,0-10.6c7.1,0,14.1,0,21.5,0c0,3.6,0,7,0,10.4c18,0,35.4,0,52.9,0c0-3.5,0-6.8,0-10.5c-3.5,0-6.8,0-10.5,0
		c0-3.6,0-7,0-10.4c-28.7,0-56.9,0-85.6,0c0,7.1,0,14.1,0,21c-7.3,0-14.2,0-21.5,0c0-7.1,0-14,0-21c-7.3,0-14.1,0-20.9,0
		c0,7.1,0,13.9,0,21c3.5,0,6.8,0,10.6,0c0,3.7,0,7.2,0,10.7c-14.4,0-28.8,0-43.2,0c0-3.5,0-6.9,0-10.8c7.3,0,14.2,0,21.2,0
		c0-10.8,0-21.2,0-31.7c-10.6,0-21,0-31.5,0c0,3.4,0,6.7,0,10.3c7.1,0,14.1,0,21.1,0c0,3.8,0,7.1,0,10.9c-7.1,0-14,0-21.3,0
		c0,3.7,0,7.1,0,10.8c-3.7,0-7.1,0-10.4,0c0,3.8,0,7.1,0,10.5c-39.4,0-78.8,0-118.2,0c0-3.5,0-6.9,0-10.8c7.3,0,14.2,0,21.3,0
		c0-3.6,0-6.9,0-10.3c-17.8,0-35.3,0-52.9,0c0,3.5,0,6.8,0,10.3c7.1,0,13.9,0,20.9,0c0,3.8,0,7.3,0,10.7c-25,0-50,0-75,0
		c0-7.2-0.1-14.4-0.1-21.7c10.7,0,21.4,0,32.2,0c0-3.6,0-6.7,0-10.1c-10.6,0-21,0-31.6,0c-0.2,3.5-0.3,6.8-0.5,10.2
		c-3.4,0-6.7,0-10.5,0c0,4,0,7.4,0,10.8c-25.2,0-49.9,0-75.1,0c0-7.1,0-14,0-21c-7.3,0-14.1,0-20.9,0c0,3.5,0,6.7,0,10.3
		c3.6,0,6.9,0,10.3,0c0,3.7,0,7.1,0,10.6c-14.3,0-28.4,0-42.9,0c0-3.5,0-6.9,0-10.8c-4.1,0-7.7,0-11.4,0c0-3.4,0-6.8,0-10.2
		c1.2-0.1,2.4-0.4,3.5-0.4c5.1-0.1,10.2,0,15.3-0.1c1.1,0,2.1-0.1,3.4-0.2c0-3.6,0-6.8,0-10.5c3.6,0,7,0,10.4,0c0-3.6,0-6.9,0-10.5
		c-3.5,0-6.9,0-10.5,0c0-3.7,0-7.1,0-10.8c-7.6,0-14.9,0-22.1,0c0-14.2,0-28.4,0-42.6c7.3-0.2,14.6-0.4,22.3-0.5c0-3.6,0-6.9,0-10.5
		c3.6,0,7,0,10.7,0c0-3.8,0-7.1,0-10.5c1.3-0.1,2.6-0.2,3.9-0.2c40.2,0,80.4,0,120.6,0c1.3,0,2.5,0,4.1,0c0-3.8,0-7.2,0-10.8
		c32.2,0,64.1,0,96,0c0-3.6,0-6.9,0-10.3c-35.6,0-71,0-106.7,0c0,3.5,0,6.8,0,10.5c-39.4,0-78.5,0-117.8,0c0,3.9,0,7.3,0,10.8
		c-11,0-22-0.1-33.1-0.1C0,453.6,0,446.4,0,439.2z M675.5,364.1c10.5,0,21.1,0,31.8,0c0-3.5,0-6.8,0-10.2c-10.5,0-21,0-31.7,0
		C675.6,357.4,675.6,360.8,675.5,364.1c-7,0.1-14,0.1-21.1,0.1c0,4,0,7.3,0,10.6c7.1,0,13.9,0,21.1,0
		C675.5,371,675.5,367.5,675.5,364.1z M214.8,535.8c-50,0-99.6,0-149.8,0c0-3.7,0-7.1,0-10.5c-3.8,0-7,0-10.2,0c0,7,0,13.8,0,21
		c7.1,0,14,0,21.4,0c0,3.8,0,7.1,0,10.5c7.2,0,13.9,0,21.1,0c0-3.5,0-6.8,0-10.6c39.4,0,78.4,0,117.6,0
		C214.8,542.5,214.8,539.4,214.8,535.8z M353.9,546.7c-32,0-63.8,0-95.7,0c0,3.5,0,6.7,0,10.3c14.2,0,28.3,0,42.3,0
		c0,3.8,0,7.1,0,10.9c-3.5,0-6.9,0-10.3,0c0,3.6,0,6.9,0,10.2c7.1,0,14,0,21.2,0c0-7.1,0-14,0-21.2c14.3,0,28.3,0,42.5,0
		C353.9,553.3,353.9,550.2,353.9,546.7z M65.4,482.1c0,7.4,0,14.2,0,21.1c28.6,0,56.8,0,85,0c0-3.5,0-6.7,0-10.3
		c-25,0-49.7,0-74.5,0c0-3.7,0-7.1,0-10.9c3.5,0,6.9,0,10.2,0c0-3.7,0-6.9,0-10.2c-10.6,0-21,0-31.4,0c0,3.5,0,6.8,0,10.3
		C58.3,482.1,61.6,482.1,65.4,482.1z M172.2,524.8c0-3.6,0-7,0-10.4c3.8,0,7.2,0,10.9,0c0,3.6,0,6.9,0,10.3c3.6,0,6.8,0,10.1,0
		c0-7.1,0-14,0-20.9c-10.6,0-21,0-31.7,0c0,3.5,0,6.9,0,10.6c-3.7,0-7,0-10.5,0c0,3.7,0,7,0,10.5
		C158.1,524.8,164.8,524.8,172.2,524.8z M557.4,396.7c-17.9,0-35.3,0-52.9,0c0,3.5,0,6.8,0,10.1c17.8,0,35.3,0,52.9,0
		C557.4,403.3,557.4,400.1,557.4,396.7z M761.4,438.9c14.3,0,28.3,0,42.3,0c0-3.5,0-6.7,0-10c-14.2,0-28.2,0-42.3,0
		C761.4,432.4,761.4,435.5,761.4,438.9z M793,578.2c0-3.6,0-6.9,0-10.1c-10.6,0-21.1,0-31.4,0c0,3.5,0,6.8,0,10.1
		C772.1,578.2,782.5,578.2,793,578.2z M653.7,471.2c0-3.6,0-6.9,0-10.1c-10.6,0-21,0-31.4,0c0,3.5,0,6.8,0,10.1
		C632.9,471.2,643.2,471.2,653.7,471.2z M353.9,568.1c-10.7,0-21.1,0-31.4,0c0,3.6,0,6.8,0,10.1c10.6,0,20.9,0,31.4,0
		C353.9,574.8,353.9,571.5,353.9,568.1z M579.4,481.8c10.7,0,21.1,0,31.6,0c0-3.5,0-6.7,0-10c-10.6,0-21.1,0-31.6,0
		C579.4,475.1,579.4,478.3,579.4,481.8z M546.8,482.5c-10.7,0-21.1,0-31.6,0c0,3.5,0,6.7,0,10c10.6,0,21,0,31.6,0
		C546.8,489.1,546.8,485.9,546.8,482.5z M867.9,567.5c0-3.6,0-6.8,0-10.2c-10.6,0-20.9,0-31.4,0c0,3.5,0,6.8,0,10.2
		C847.1,567.5,857.4,567.5,867.9,567.5z M215.3,556.6c10.5,0,21,0,31.5,0c0-3.5,0-6.7,0-10c-10.6,0-20.9,0-31.5,0
		C215.3,550,215.3,553.2,215.3,556.6z M503.9,407.6c-10.7,0-21.1,0-31.5,0c0,3.4,0,6.6,0,9.9c10.6,0,21,0,31.5,0
		C503.9,414.1,503.9,410.9,503.9,407.6z M729.3,449.7c7.1,0,13.9,0,20.9,0c0-3.5,0-6.8,0-10.1c-7.1,0-13.9,0-20.9,0
		C729.3,443,729.3,446.2,729.3,449.7z M611.5,385.5c7.1,0,13.9,0,20.8,0c0-3.5,0-6.8,0-10.1c-7.1,0-13.9,0-20.8,0
		C611.5,378.8,611.5,382,611.5,385.5z M835.9,428.3c0-3.5,0-6.7,0-10.1c-7.1,0-14,0-20.9,0c0,3.5,0,6.7,0,10.1
		C822,428.3,828.8,428.3,835.9,428.3z M118.5,471.8c-7.2,0-14.1,0-20.9,0c0,3.5,0,6.7,0,10c7.1,0,13.9,0,20.9,0
		C118.5,478.4,118.5,475.2,118.5,471.8z M118.5,557.4c-7.2,0-14,0-21,0c0,3.5,0,6.7,0,10c7.1,0,14,0,21,0
		C118.5,564,118.5,560.8,118.5,557.4z M54.1,493.2c-7.1,0-13.9,0-20.9,0c0,3.4,0,6.7,0,10c7,0,13.9,0,20.9,0
		C54.1,499.8,54.1,496.5,54.1,493.2z M685.9,460.5c0-3.7,0-7,0-10.2c-3.5,0-6.8,0-10,0c0,3.5,0,6.9,0,10.2
		C679.3,460.5,682.5,460.5,685.9,460.5z M579.5,385.9c0,3.6,0,6.9,0,10.2c3.5,0,6.8,0,10,0c0-3.5,0-6.8,0-10.2
		C586.1,385.9,582.9,385.9,579.5,385.9z M43.4,546.7c-3.5,0-6.8,0-10.2,0c0,3.5,0,6.7,0,10c3.5,0,6.7,0,10.2,0
		C43.4,553.3,43.4,550.1,43.4,546.7z M643,374.8c0-3.6,0-6.9,0-10.3c-3.4,0-6.6,0-9.9,0c0,3.5,0,6.8,0,10.3
		C636.4,374.8,639.6,374.8,643,374.8z M76.2,524.7c3.6,0,6.7,0,10,0c0-3.5,0-6.8,0-10.2c-3.4,0-6.7,0-10,0
		C76.2,518,76.2,521.2,76.2,524.7z"/>
	<path d="M525.6,321.5c10.5,0,21,0,31.9,0c0-3.8,0-7.2,0-10.9c3.8,0,7,0,10.7,0c0-3.6,0-6.9,0-10.7c7.3,0,14.2,0,21.5,0
		c0-3.7,0-7.1,0-10.8c3.7,0,7,0,10.7,0c0-3.6,0-6.9,0-10.6c3.6,0,7,0,10.6,0c0-7.2,0-14,0-21.3c-3.4,0-6.7,0-10.4,0
		c0-3.7,0-7,0-10.8c-3.7,0-7,0-10.7,0c0-3.7,0-7.1,0-10.7c-7.2,0-14.1,0-21.3,0c0-3.6,0-7,0-10.6c-7.3,0-14.1,0-21.4,0
		c0-3.6,0-7,0-10.8c-10.9,0-21.4,0-32.3,0c0-3.7,0-7,0-10.6c-7.2,0-14,0-21.1,0c0-3.8,0-7.2,0-10.9c10.6,0,21.1,0,31.9,0
		c0,3.4,0,6.7,0,10.3c10.7,0,21.2,0,32,0c0,3.7,0,7,0,10.7c10.8,0,21.3,0,32.1,0c0,3.7,0,7,0,10.8c7.3,0,14.2,0,21.5,0
		c0,3.7,0,7.1,0,10.8c7.3,0,14.2,0,21.6,0c0,3.7,0,7.1,0,10.7c3.6,0,6.9,0,10.6,0c0,3.6,0,7,0,10.6c3.7,0,6.9,0,10.4,0
		c0,7.4,0,14.4,0,21.7c-3.3,0-6.6,0-10.2,0c0,3.6,0,6.8,0,10.5c-3.7,0-7,0-10.7,0c0,3.7,0,7.1,0,10.8c-3.7,0-7.1,0-10.8,0
		c0,3.7,0,7.1,0,10.7c-7.2,0-14.1,0-21.4,0c0,3.7,0,7.1,0,10.8c-7.3,0-14.2,0-21.4,0c0,3.6,0,7,0,10.7c-7.2,0-14.1,0-21.4,0
		c0,3.6,0,7,0,10.6c-7.3,0-14.1,0-21.4,0c0,3.7,0,7,0,10.7c-14.4,0-28.5,0-42.9,0c0,3.7,0,7.1,0,10.7c-10.8,0-21.3,0-32.1,0
		c0,3.6,0,7,0,10.7c-14.4,0-28.4,0-42.8,0c0,3.7,0,7.1,0,10.7c-28.6,0-56.9,0-85.5,0c0,3.6,0,6.9,0,10.7c-21.6,0-42.8,0-64.3,0
		c0,3.7,0,7,0,10.5c-3.7,0-7.1,0-10.9,0c0-3.4,0-6.7,0-10.2c-3.6,0-6.9,0-10.5,0c0,3.3,0,6.7,0,10.4c-39.4,0-78.4,0-117.7,0
		c0,3.7,0,6.9,0,10.5c-1.3,0.1-2.4,0.3-3.4,0.3c-40.9,0-81.8,0-122.7,0c-1.2,0-2.4-0.2-3.6-0.4c0-3.4,0-6.8,0-10.2
		c1.6-0.1,3.2-0.3,4.8-0.3c36.4,0,72.8,0,109.2,0c1.4,0,2.8,0,4.4,0c0-3.5,0-6.8,0-10.4c-6.9,0-13.8,0-21,0c0-3.7,0-7.1,0-10.8
		c6.9,0,13.9,0,21.1,0c0-3.7,0-7.1,0-10.8c18,0,35.6,0,53.6,0c0-3.7,0-7.1,0-10.6c3.7,0,7,0,10.6,0c0,7,0,14,0,21.4
		c-17.6,0-35.2,0-53,0c0,3.7,0,6.9,0,10.4c24.7,0,49.4,0,74.4,0c0-3.4,0-6.8,0-10.4c28.7,0,56.9,0,85.4,0c0-3.6,0-6.9,0-10.6
		c-21.3,0-42.4,0-63.7,0c0-3.7,0-7,0-10.8c21.2,0,42.3,0,63.8,0c0-3.7,0-7,0-10.8c18,0,35.6,0,53.7,0c0-3.7,0-7.1,0-10.8
		c18.1,0,35.7,0,53.6,0c0-3.7,0-6.9,0-10.5c10.8,0,21.2,0,32.1,0c0-3.7,0-7,0-10.7c10.8,0,21.3,0,32.1,0c0-3.7,0-7,0-10.7
		c7.3,0,14.2,0,21.5,0c0-3.7,0-7.1,0-10.8c7.2,0,14.1,0,21.3,0c0-3.7,0-7,0-10.7c3.7,0,7,0,10.7,0c0-3.6,0-6.9,0-10.6
		c3.7,0,7.1,0,10.7,0c0-7.3,0-14,0-21.2c-7,0-13.9,0-21.2,0c0-3.7,0-7.1,0-10.8c-7.2,0-14.1,0-21.3,0c0-3.7,0-7,0-10.6
		c-7.2,0-14.1,0-21.3,0c0,3.3,0,6.6,0,10.2c-3.8,0-7.2,0-11,0c0-7,0-13.9,0-21.1c-7.3,0-14.1,0-21.4,0c0-3.7,0-7,0-10.7
		c-10.8,0-21.3,0-32.1,0c0-3.6,0-6.8,0-10.6c-32.2,0-64.1,0-96.3,0c0-3.8,0-7.1,0-10.9c14,0,28,0,42.5,0c0-3.8,0-7.1,0-10.8
		c3.8,0,7.1,0,10.8,0c0-3.7,0-6.9,0-10.4c25.1,0,50,0,75.2,0c0,3.3,0,6.7,0,10.3c3.7,0,6.9,0,10.5,0c0,3.7,0,7.1,0,10.8
		c-3.4,0-6.8,0-10.5,0c0-3.4,0-6.7,0-10.3c-25,0-49.7,0-74.6,0c0,3.2,0,6.5,0,10.2c17.6,0,35.2,0,53.2,0c0,3.7,0,7,0,10.6
		c14.3,0,28.3,0,42.8,0c0,3.8,0,7.1,0,10.7c14.4,0,28.5,0,42.9,0c0,3.7,0,7,0,10.7c10.8,0,21.3,0,32.1,0c0,3.7,0,7,0,10.8
		c7.3,0,14.2,0,21.5,0c0,3.7,0,7.1,0,10.8c3.7,0,7,0,10.7,0c0,3.6,0,6.9,0,10.6c3.6,0,7,0,10.5,0c0,11,0,21.5,0,32.3
		c-3.4,0-6.7,0-10.3,0c0,3.6,0,6.9,0,10.7c-3.7,0-7.1,0-10.8,0c0,3.7,0,7.1,0,10.8c-7.3,0-14.2,0-21.5,0
		C525.6,314.7,525.6,318.2,525.6,321.5c-10.5,0.1-21.1,0.1-32,0.1c0,3.7,0,7.1,0,10.8c-7.3,0-14.2,0-21.2,0c0,3.6,0,6.7,0,10
		c10.6,0,21,0,31.8,0c0-3.5,0-6.7,0-10.4c7.3,0,14.2,0,21.5,0C525.6,328.3,525.6,324.9,525.6,321.5z M364.6,374.8
		c0-3.5,0-6.8,0-10.2c-14.1,0-28.1,0-42.1,0c0,3.5,0,6.8,0,10.2C336.6,374.8,350.5,374.8,364.6,374.8z M386.6,364
		c10.7,0,21.1,0,31.6,0c0-3.4,0-6.7,0-10.1c-10.6,0-21,0-31.6,0C386.6,357.3,386.6,360.5,386.6,364z M471.8,353.2c0-3.4,0-6.7,0-10
		c-7.1,0-14,0-20.9,0c0,3.5,0,6.7,0,10C458,353.2,464.8,353.2,471.8,353.2z"/>
	<path d="M0,343.2c1.6-0.1,3.2-0.4,4.7-0.4c47.1,0,94.2,0,141.2,0c1.4,0,2.8,0,4.6,0c0-3.6,0-6.9,0-10.5c21.6,0,42.7,0,64.3,0
		c0-3.7,0-7,0-10.7c21.5,0,42.7,0,64.2,0c0-3.7,0-7,0-10.7c21.5,0,42.7,0,64.2,0c0-3.7,0-7,0-10.7c14.5,0,28.5,0,42.9,0
		c0-3.7,0-7,0-10.8c7.3,0,14.2,0,21.6,0c0-3.7,0-7.1,0-10.7c3.7,0,6.9,0,10.4,0c0-7.2,0-14,0-21.1c-7,0-13.8,0-21,0
		c0-3.7,0-7,0-10.7c-3.7,0-7,0-10.7,0c0-3.7,0-7.1,0-10.6c-10.8,0-21.2,0-32,0c0,3.5,0,6.8,0,10.3c-3.8,0-7.1,0-10.9,0
		c0-3.4,0-6.8,0-10.3c-7.2,0-14,0-21.2,0c0,3.4,0,6.8,0,10.3c-50.1,0-99.8,0-149.9,0c0-3.3,0-6.6,0-10.6c-3.9,0-7.4,0-11,0
		c0-3.5,0-6.9,0-10.6c32.3,0,64.3,0,96.6,0c0,3.4,0,6.8,0,10.3c3.6,0,6.9,0,10.5,0c0-3.4,0-6.7,0-10.3c46.6,0,92.8,0,139.4,0
		c0,3.4,0,6.7,0,10.4c7.2,0,14.2,0,21.5,0c0,3.7,0,7.1,0,10.8c3.6,0,6.9,0,10.6,0c0,3.6,0,7,0,10.7c3.7,0,7,0,10.8,0
		c0,3.7,0,7.1,0,10.8c3.8,0,7.1,0,10.6,0c0,7.3,0,14.1,0,21.4c-3.4,0-6.7,0-10.4,0c0,3.7,0,7,0,10.8c-3.7,0-7,0-10.7,0
		c0,3.7,0,7.1,0,10.8c-10.8,0-21.3,0-32.1,0c0,3.7,0,7,0,10.7c-14.4,0-28.5,0-42.9,0c0,3.7,0,7,0,10.8c-21.6,0-42.8,0-64.3,0
		c0,3.7,0,6.9,0,10.5c-7.2,0-14.2,0-21.5,0c0-3.3,0-6.6,0-10.1c-3.6,0-6.8,0-10.5,0c0,3.2,0,6.5,0,10.3c-10.9,0-21.5,0-32.3,0
		c0,3.7,0,7,0,10.7c-42.9,0-85.6,0-128.4,0c0,3.7,0,7,0,10.5c-10.8,0-21.3,0-32.3,0c0-3.3,0-6.6,0-10.2c-7.2,0-14.1,0-21.3,0
		c0,3.4,0,6.8,0,10.3c-3.7,0-7.1,0-10.8,0c0-3.4,0-6.7,0-10.3c-3.7,0-7,0-10.6,0c0,3.4,0,6.7,0,10.3c-11.2,0-22.1,0-33.1,0
		C0,357.2,0,350.2,0,343.2z"/>
	<path d="M836.4,107.4c-24.9,0-49.9,0-75.2,0c0-10.7,0-21.2,0-31.9c-3.7,0-7,0-10.6,0c0,7,0,13.9,0,20.9c-3.6,0-7,0-10.7,0
		c0-3.3,0-6.7,0-10.7c-3.9,0-7.4,0-11,0l0.1,0.1c0-3.4,0-6.8,0-10.4c-17.8,0-35.4,0-53.1,0c0,3.3,0,6.6,0,10.2c3.4,0,6.7,0,10.3,0
		c0,3.8,0,7.2,0,10.8c-7.1,0-14,0-21.3,0c0-7,0-13.8,0-20.9c-3.6,0-6.9,0-10.6,0c0,6.9,0,13.8,0,20.9c-10.8,0-21.4,0-32.1,0
		c0-7,0-14,0-21.3c3.4,0,6.7,0,10.3,0c0-3.6,0-6.7,0-10.4c-7,0-13.9,0-21,0c0-3.8,0-7.2,0-10.8c49.9,0,99.7,0,149.8,0
		c0,3.4,0,6.6,0,10.4c25.1,0,49.9,0,75,0c0,3.8,0,7,0,10.7c14.2,0,28.2,0,42.1,0c0,3.6,0,7.2,0,10.8c-10.2,0-20.5,0-31.2,0
		c0,3.7,0,7.1,0,10.8c-3.7,0-7,0-10.8,0C836.3,100.3,836.3,103.9,836.4,107.4L836.4,107.4z M825.2,86.1c-17.8,0-35.4,0-53,0
		c0,3.5,0,6.7,0,10.2c17.7,0,35.3,0,53,0C825.2,92.9,825.2,89.6,825.2,86.1z"/>
	<path d="M0,43.2C10.3,43.1,20.6,43,30.9,43c4.2,0,8.3,0,12.8,0c0,3.6,0,6.8,0,10.4c3.6,0,6.9,0,10.6,0c0-3.4,0-6.6,0-10.1
		c18,0,35.6,0,53.7,0c0,3.3,0,6.6,0,10.2c3.7,0,7,0,10.7,0c0-3.5,0-6.8,0-10.2c7.3,0,14.2,0,21.5,0c0,3.4,0,6.6,0,10.2
		c3.6,0,6.8,0,10.5,0c0-3.3,0-6.6,0-10.3c35.9,0,71.3,0,107.1,0c0-3.7,0-7,0-10.6c3.8,0,7.2,0,10.9,0c0,3.4,0,6.8,0,10.5
		c-3.4,0-6.7,0-10.4,0c0,3.7,0,7,0,10.8c-10.8,0-21.3,0-32,0c0,3.6,0,6.8,0,10.5c3.3,0,6.6,0,10.2,0c0,3.8,0,7.1,0,10.7
		c-39,0-78.1,0-117.5,0c0-3.2,0-6.6,0-10.3c-32.3,0-64.3,0-96.5,0c0-3.7,0-7,0-10.5c-1.3-0.1-2.4-0.2-3.4-0.2
		c-5.1,0-10.2,0-15.3-0.1c-1.2,0-2.4-0.3-3.5-0.5C0,50,0,46.6,0,43.2z M161.7,64.1c10.8,0,21.2,0,31.6,0c0-3.5,0-6.7,0-9.9
		c-10.7,0-21.1,0-31.6,0C161.7,57.6,161.7,60.7,161.7,64.1z M204.6,64.1c3.6,0,6.8,0,10,0c0-3.5,0-6.7,0-9.9c-3.5,0-6.7,0-10,0
		C204.6,57.6,204.6,60.8,204.6,64.1z"/>
	<path d="M0,204c1.5-0.1,3-0.4,4.4-0.4c25.9,0,51.8,0,77.7,0c1.3,0,2.6,0,4.1,0c0-3.6,0-6.8,0-10.4c60.9,0,121.5,0,182.3,0
		c0.1,1,0.2,1.8,0.2,2.7c0,2.5,0,5,0,7.8c-60.7,0-121.2,0-182.1,0c0,3.7,0,7,0,10.6c-1.5,0.1-2.5,0.2-3.6,0.2c-26.5,0-53,0-79.5,0
		c-1.2,0-2.4-0.1-3.6-0.2C0,210.8,0,207.4,0,204z"/>
	<path d="M0,129c1.1-0.1,2.2-0.3,3.3-0.3c12.5,0,25,0,37.5,0c0.9,0,1.8,0.1,2.9,0.2c0,3.4,0,6.6,0,10.3c3.6,0,7,0,10.7,0
		c0,3.7,0,7,0,10.6c7.2,0,14,0,21.3,0c0-3.3,0-6.7,0-10.3c32.3,0,64.2,0,96.4,0c0,3.4,0,6.9,0,10.6c-28.4,0-56.7,0-85.4,0
		c0,3.7,0,7,0,10.6c-1.3,0.1-2.3,0.2-3.3,0.2c-26.7,0-53.4,0-80.1,0c-1.1,0-2.2-0.1-3.3-0.1c0-3.6,0-7.2,0-10.8
		c10.9,0,21.7,0,32.7,0c0-3.6,0-6.9,0-10.6c-1.3,0-2.5,0-3.7,0c-9.7-0.1-19.4-0.2-29.1-0.2C0,135.8,0,132.4,0,129z"/>
	<path d="M878.3,171.6c-10.4,0-20.8,0-31.5,0c0-3.6,0-6.9,0-10.6c-10.8,0-21.3,0-32.1,0c0-3.7,0-7,0-10.7c-18,0-35.6,0-53.6,0
		c0-3.7,0-7.1,0-10.7c-7.2,0-14.1,0-21.2,0c0-3.7,0-7,0-10.6c14.1,0,28.2,0,42.7,0c0,3.3,0,6.6,0,10.2c18,0,35.6,0,53.6,0
		c0,3.7,0,7.1,0,10.8c10.8,0,21.2,0,32,0c0,3.7,0,7,0,10.9c3.6,0,6.9,0,10.1,0C878.3,164.4,878.3,168,878.3,171.6z"/>
	<path d="M878.3,10.8c-4.3,0.1-8.6,0.2-12.9,0.2c-58.3,0-116.7,0-175,0c-1.3,0-2.6,0-4.1,0c0-3.9,0-7.4,0-11c64,0,128,0,192,0
		C878.3,3.6,878.3,7.2,878.3,10.8z"/>
	<path d="M161.4,235.8c0,3.5,0,6.9,0,10.7c-35.6,0-71,0-106.8,0c0,3.7,0,7,0,10.6c-1.4,0.1-2.5,0.2-3.5,0.2c-15.9,0-31.8,0-47.6,0
		c-1.2,0-2.3-0.3-3.5-0.5c0-3.4,0-6.8,0-10.2c10.8,0,21.6,0,32.8,0c0-3.7,0-7.1,0-10.7c1.2-0.1,2-0.2,2.8-0.2c41.7,0,83.3,0,125,0
		C160.8,235.7,161.1,235.7,161.4,235.8z"/>
	<path d="M0,385.8c28.2,0,56.4-0.1,84.6-0.1c0.5,0,1,0.1,1.7,0.2c0,3.5,0,6.9,0,10.7c-1.2,0-2.2,0-3.3,0c-26.4,0-52.8,0-79.2,0
		c-1.3,0-2.5-0.3-3.8-0.5C0,392.6,0,389.2,0,385.8z"/>
	<path d="M878.3,43.2c-21.1,0-42.1,0-63.4,0c0-3.7,0-7.1,0-10.7c0.8-0.1,1.6-0.2,2.3-0.2c19.8,0,39.5,0,59.3,0
		c0.6,0,1.2,0.1,1.8,0.1C878.3,36,878.3,39.6,878.3,43.2z"/>
	<path d="M0,75.6c1-0.2,1.9-0.5,2.9-0.5c16.4,0,32.7,0,49.1,0c0.7,0,1.4,0.1,2.3,0.2c0,3.4,0,6.8,0,10.5c-18.1,0-36.2,0-54.3,0
		C0,82.4,0,79,0,75.6z"/>
	<path d="M22.2,0c0,3.5,0,7,0,10.7c-3.5,0-6.9,0-10.8,0c0-3.6,0-7.1,0-10.7C15,0,18.6,0,22.2,0z"/>
	<path d="M878.3,471.6c-3.3,0-6.5,0-10,0c0-3.7,0-7.1,0-10.8c3.3,0,6.7,0,10,0C878.3,464.4,878.3,468,878.3,471.6z"/>
	<path d="M590,43.2c0,7.1,0,13.9,0,21.2c3.7,0,7,0,10.6,0c0,3.7,0,6.9,0,10.6c3.6,0,6.9,0,10.5,0c0,3.7,0,7.1,0,10.7
		c-17.7,0-35.4,0-53.3,0c0-3.4,0-6.7,0-10.4c7,0,13.8,0,20.9,0c0-3.6,0-6.9,0-10.6c-3.4,0-6.6,0-10.3,0c0-3.6,0-7,0-10.5
		c-3.7,0-6.9,0-10.6,0c0,3.4,0,6.7,0,10.4c-7.3,0-14.1,0-21.2,0c0,3.6,0,6.8,0,10.5c3.3,0,6.7,0,10.2,0c0,3.7,0,7.1,0,10.7
		c-10.6,0-21.1,0-32,0c0-3.3,0-6.7,0-10.4c-3.7,0-7.1,0-10.7,0c0-3.6,0-6.9,0-10.4c-7.1,0-14,0-21.1,0c0,3.3,0,6.6,0,10.1
		c-7.3,0-14.3,0-21.7,0c0-6.9,0-13.8,0-21c-10.8,0-21.2,0-31.9,0c0-3.8,0-7.2,0-10.8c10.6,0,21.1,0,31.9,0c0,3.3,0,6.7,0,10.2
		c14.4,0,28.3,0,42.6,0c0-3.3,0-6.7,0-10.2C532.7,43.2,561.1,43.2,590,43.2z"/>
	<path d="M268.7,75c0-3.5,0-6.8,0-10.6c3.4,0,6.7,0,10.4,0c0-7.3,0-14.1,0-21.2c3.7,0,7,0,10.8,0c0,3.3,0,6.7,0,10.4
		c3.8,0,7.1,0,10.7,0c0,3.7,0,6.9,0,10.4c3.6,0,6.9,0,10.5,0c0-3.3,0-6.6,0-10.4c3.7,0,7.1,0,10.8,0c0-3.8,0-7,0-10.5
		c7.2,0,14.2,0,21.4,0c0,10.5,0,21.1,0,31.8C318.5,75,293.7,75,268.7,75z"/>
	<path d="M204.4,96.7c0-3.9,0-7.2,0-10.8c35.6,0,71.1,0,106.8,0c0,3.4,0,6.9,0,10.6c-24.8,0-49.5,0-74.6,0c0,3.7,0,7,0,10.6
		c-3.8,0-7.2,0-11,0c0-3.5,0-6.8,0-10.4C218.4,96.7,211.6,96.7,204.4,96.7z"/>
	<path d="M257.9,11c0,3.6,0,6.9,0,10.4c-35.7,0-71.2,0-107,0c0-3.4,0-6.8,0-10.4C186.5,11,222.1,11,257.9,11z"/>
	<path d="M365,53.9c-3.8,0-7.1,0-10.6,0c0-3.7,0-7.1,0-10.8c7,0,14,0,21.3,0c0,3.4,0,6.7,0,10.3c7.3,0,14.1,0,21.2,0
		c0-3.5,0-6.7,0-10.2c3.7,0,7.1,0,10.8,0c0,3.5,0,6.8,0,10.6c-3.4,0-6.8,0-10.5,0c0,7.2,0,14.1,0,21.2c-10.9,0-21.4,0-32.3,0
		C365,68.1,365,61.3,365,53.9z"/>
	<path d="M204.3,171.7c0,3.6,0,6.9,0,10.5c-24.9,0-49.6,0-74.6,0c0-3.5,0-6.9,0-10.5C154.4,171.7,179.2,171.7,204.3,171.7z"/>
	<path d="M150.6,86c0,3.5,0,6.9,0,10.6c-3.4,0-6.7,0-10.5,0c0,3.7,0,7.1,0,10.6c-10.9,0-21.4,0-32.1,0c0-7.1,0-14.1,0-21.2
		C122.2,86,136.2,86,150.6,86z"/>
	<path d="M664.9,128.6c0-3.6,0-6.9,0-10.5c21.4,0,42.6,0,64,0c0,3.5,0,6.9,0,10.5C707.6,128.6,686.4,128.6,664.9,128.6z"/>
	<path d="M214.9,118.3c0,3.6,0,6.9,0,10.4c-17.8,0-35.5,0-53.3,0c0-3.5,0-6.8,0-10.4C179.3,118.3,197,118.3,214.9,118.3z"/>
	<path d="M129.4,118.2c0,3.6,0,6.9,0,10.4c-17.8,0-35.4,0-53.4,0c0-3.4,0-6.8,0-10.4C93.8,118.2,111.4,118.2,129.4,118.2z"/>
	<path d="M354.4,107.3c-7.4,0-14.2,0-21.3,0c0-7.2,0-14.2,0-21.3c10.6,0,21,0,31.7,0c0,3.5,0,7,0,10.7c-3.4,0-6.6,0-10.4,0
		C354.4,100.3,354.4,103.8,354.4,107.3z"/>
	<path d="M279.2,182.1c-14.3,0-28.4,0-42.7,0c0-3.5,0-6.9,0-10.4c14.2,0,28.4,0,42.7,0C279.2,175.2,279.2,178.6,279.2,182.1z"/>
	<path d="M139.9,11c0,3.5,0,6.9,0,10.5c-14.2,0-28.2,0-42.5,0c0-3.4,0-6.8,0-10.5C111.5,11,125.6,11,139.9,11z"/>
	<path d="M686.4,32.2c0-3.5,0-6.9,0-10.4c14.2,0,28.2,0,42.5,0c0,3.4,0,6.8,0,10.4C714.8,32.2,700.8,32.2,686.4,32.2z"/>
	<path d="M654,107.5c0,3.5,0,6.9,0,10.5c-14.2,0-28.2,0-42.5,0c0-3.4,0-6.8,0-10.5C625.5,107.5,639.6,107.5,654,107.5z"/>
	<path d="M536.4,139.2c0-3.5,0-6.8,0-10.3c14.2,0,28.3,0,42.6,0c0,3.4,0,6.7,0,10.3C564.8,139.2,550.8,139.2,536.4,139.2z"/>
	<path d="M43.7,182.4c0,3.7,0,6.9,0,10.5c-10.6,0-21.2,0-32,0c0-3.4,0-6.8,0-10.5C22.4,182.4,32.9,182.4,43.7,182.4z"/>
	<path d="M482.7,192.9c-10.7,0-21.2,0-31.9,0c0-3.5,0-6.8,0-10.4c10.5,0,21.1,0,31.9,0C482.7,185.8,482.7,189.1,482.7,192.9z"/>
	<path d="M461.3,11c0,3.6,0,6.8,0,10.4c-10.6,0-21.1,0-31.9,0c0-3.3,0-6.7,0-10.4C439.9,11,450.5,11,461.3,11z"/>
	<path d="M643.5,32.2c0-3.5,0-6.9,0-10.4c10.7,0,21.2,0,31.9,0c0,3.5,0,6.8,0,10.4C664.9,32.2,654.4,32.2,643.5,32.2z"/>
	<path d="M43.8,21.4c0-3.5,0-6.8,0-10.4c10.7,0,21.2,0,31.9,0c0,3.4,0,6.8,0,10.4C65.2,21.4,54.7,21.4,43.8,21.4z"/>
	<path d="M836.3,107.4c10.5,0,21,0,31.7,0c0,3.5,0,6.9,0,10.5c-10.5,0-21.1,0-31.7,0C836.4,114.3,836.4,110.8,836.3,107.4
		C836.4,107.4,836.3,107.4,836.3,107.4z"/>
	<path d="M728.9,85.8c0,3.5,0,6.9,0,10.7c-7,0-13.9,0-21.1,0c0-3.4,0-6.8,0-10.6C714.9,85.8,721.9,85.8,728.9,85.8
		C729,85.8,728.9,85.8,728.9,85.8z"/>
	<path d="M290,21.5c0-3.5,0-6.8,0-10.4c7.1,0,14.1,0,21.3,0c0,3.5,0,6.8,0,10.4C304.2,21.5,297.2,21.5,290,21.5z"/>
	<path d="M557.7,96.7c0,3.5,0,6.9,0,10.5c-7.1,0-14,0-21.1,0c0-3.4,0-6.8,0-10.5C543.5,96.7,550.4,96.7,557.7,96.7z"/>
	<path d="M740,21.7c7.1,0,14,0,21.1,0c0,3.5,0,6.8,0,10.4c-6.9,0-13.8,0-21.1,0C740,28.8,740,25.4,740,21.7z"/>
	<path d="M365,21.4c0-3.6,0-6.8,0-10.4c7.1,0,14.1,0,21.3,0c0,3.4,0,6.8,0,10.4C379.3,21.4,372.3,21.4,365,21.4z"/>
	<path d="M579.3,107.4c3.4,0,6.8,0,10.4,0c0,3.4,0,6.9,0,10.5c-3.4,0-6.8,0-10.4,0C579.3,114.5,579.3,111.1,579.3,107.4z"/>
	<path d="M461.2,128.7c-3.6,0-7,0-10.5,0c0-3.6,0-6.9,0-10.5c3.5,0,6.9,0,10.5,0C461.2,121.6,461.2,125,461.2,128.7z"/>
	<path d="M322.3,11c3.6,0,6.9,0,10.5,0c0,3.5,0,6.8,0,10.5c-3.4,0-6.8,0-10.5,0C322.3,18.1,322.3,14.7,322.3,11z"/>
	<path d="M396.9,96.5c-3.5,0-6.8,0-10.4,0c0-3.5,0-6.9,0-10.5c3.5,0,6.8,0,10.4,0C396.9,89.4,396.9,92.8,396.9,96.5z"/>
	<path d="M75.8,310.7c0-3.5,0-6.8,0-10.3c-7.1,0-13.9,0-21.2,0c0,7,0,13.9,0,21c-3.7,0-7.1,0-10.8,0c0-3.4,0-6.7,0-10.4
		c-3.7,0-7,0-10.6,0c0-3.8,0-7.2,0-11c3.4,0,6.8,0,10.5,0c0-3.7,0-7,0-10.8c3.7,0,7,0,10.7,0c0-3.6,0-6.9,0-10.4
		c7.2,0,14.2,0,21.6,0c0,3.3,0,6.6,0,10.2c3.7,0,6.9,0,10.5,0c0-3.3,0-6.6,0-10.3c39.3,0,78.3,0,117.8,0c0-3.7,0-7.1,0-10.6
		c3.8,0,7.1,0,10.9,0c0,3.3,0,6.6,0,10.4c18.1,0,35.7,0,53.6,0c0,3.7,0,7,0,10.6c3.6,0,7,0,10.6,0c0,3.8,0,7.2,0,10.9
		c-3.4,0-6.7,0-10.3,0c0,3.6,0,6.9,0,10.5c-11,0-21.6,0-32.6,0c0-3.4,0-6.8,0-10.3c-3.6,0-6.8,0-10.5,0c0,3.5,0,6.8,0,10.4
		C175.7,310.7,126,310.7,75.8,310.7z"/>
	<path d="M868.1,492.9c0,3.5,0,6.8,0,10.4c-10.6,0-21.1,0-31.8,0c0-3.5,0-6.8,0-10.4C846.9,492.9,857.4,492.9,868.1,492.9z"/>
	<path d="M793.2,503.6c0.1,0.9,0.2,1.7,0.2,2.5c0,2.6,0,5.2,0,8c-3.7,0-7.1,0-10.7,0c0-3.5,0-6.9,0-10.4
		C786.1,503.6,789.5,503.6,793.2,503.6z"/>
	<path d="M322.2,471.3c0-3.6,0-6.9,0-10.5c25,0,49.8,0,74.7,0c0,3.5,0,6.9,0,10.5C372.1,471.3,347.3,471.3,322.2,471.3z"/>
	<path d="M289.9,471.6c0,3.6,0,6.8,0,10.4c-7,0-13.9,0-21.1,0c0-3.5,0-6.9,0-10.4C275.9,471.6,282.9,471.6,289.9,471.6z"/>
	<path d="M322.3,492.9c3.5,0,6.9,0,10.5,0c0,3.5,0,6.8,0,10.4c-3.5,0-6.9,0-10.5,0C322.3,499.8,322.3,496.5,322.3,492.9z"/>
</g>
</svg>
