<?xml version="1.0" encoding="utf-8"?>
<!-- Generator: Adobe Illustrator 25.4.1, SVG Export Plug-In . SVG Version: 6.00 Build 0)  -->
<svg version="1.1" id="Layer_1" xmlns="http://www.w3.org/2000/svg" xmlns:xlink="http://www.w3.org/1999/xlink" x="0px" y="0px"
	 viewBox="0 0 737 576" style="enable-background:new 0 0 737 576;" xml:space="preserve">
<g>
	<g style="enable-background:new    ;">
		<g>
			<rect x="0.5" y="0" style="fill:#14100D;" width="736" height="0"/>
		</g>
		<g>
			<polygon style="fill:#40342A;" points="722.5,562 736.5,576 0.5,576 14.5,562 			"/>
		</g>
		<g>
			<polygon style="fill:#6F5A49;" points="700.5,540 36.5,540 50.5,526 686.5,526 			"/>
		</g>
		<g>
			<polygon style="fill:#40342A;" points="700.5,36 686.5,50 50.5,50 36.5,36 			"/>
		</g>
		<g>
			<polygon style="fill:#745E4C;" points="50.5,50 50.5,526 36.5,540 36.5,36 			"/>
		</g>
		<g>
			<polygon style="fill:#3C3128;" points="700.5,36 700.5,540 686.5,526 686.5,50 			"/>
		</g>
		<g>
			<polygon style="fill:#6F5A49;" points="14.5,14 0.5,0 736.5,0 722.5,14 			"/>
		</g>
		<g>
			<polygon style="fill:#3C3128;" points="14.5,562 0.5,576 0.5,0 14.5,14 			"/>
		</g>
		<g>
			<path style="fill:#614F40;" d="M14.5,14v548h708V14H14.5z M700.5,540h-664V36h664V540z"/>
		</g>
		<g>
			<polygon style="fill:#745E4C;" points="722.5,14 736.5,0 736.5,576 722.5,562 			"/>
		</g>
	</g>
</g>
</svg>
